# xmcd CD database file
#
# Track frame offsets:
#	150
#	22167
#	35112
#	50825
#	67072
#	83587
#	97575
#	115575
#	135722
#	152412
#	170472
#	185107
#
# Disc length: 2712 seconds
#
# Revision: 5
# Processed by: cddbd v1.4PL0 Copyright (c) Steve Scherf et al.
# Submitted via: CDex 1.40Beta9
#
DISCID=9e0a960c
DTITLE=Alabama - Pass It On Down
DYEAR=1990
DGENRE=Country
TTITLE0=Pass It On Down
TTITLE1=Here We Are
TTITLE2=Down Home
TTITLE3=Forever's As Far As I'll Go
TTITLE4=Jukebox In My Mind
TTITLE5=Moonlight Lounge
TTITLE6=Goodbye (Kelly's Song)
TTITLE7=Fire On Fire
TTITLE8=Until It Happens To You
TTITLE9=Gulf Of Mexico
TTITLE10=Starting Tonight
TTITLE11=I Ain't Got No Business Doin' Business Today
EXTD=YEAR: 1990 ID3G: 2
EXTT0=
EXTT1=
EXTT2=
EXTT3=
EXTT4=
EXTT5=
EXTT6=
EXTT7=
EXTT8=
EXTT9=
EXTT10=
EXTT11=
PLAYORDER=
